<svg width="23" height="24" viewBox="0 0 23 24" fill="none" xmlns="http://www.w3.org/2000/svg">
<path d="M15.8046 8.00287C15.8046 8.34278 15.7038 8.67507 15.515 8.9577C15.3261 9.24034 15.0577 9.46063 14.7437 9.59072C14.4297 9.72082 14.0841 9.75486 13.7507 9.68856C13.4173 9.62226 13.1111 9.45858 12.8707 9.21824C12.6304 8.97789 12.4667 8.67166 12.4004 8.33828C12.334 8.0049 12.3681 7.65934 12.4981 7.3453C12.6282 7.03126 12.8485 6.76284 13.1311 6.57399C13.4138 6.38514 13.746 6.28435 14.0859 6.28435C14.5417 6.28435 14.9789 6.46541 15.3012 6.78769C15.6235 7.10997 15.8045 7.54708 15.8046 8.00287ZM22.0226 6.5042V17.4958C22.0232 17.7027 21.968 17.906 21.8629 18.0841C21.7577 18.2623 21.6063 18.4088 21.4249 18.5082L11.5427 23.8649C11.3796 23.9536 11.1969 24 11.0113 24C10.8257 24 10.643 23.9536 10.4799 23.8649L0.59772 18.5082C0.416232 18.4088 0.264917 18.2623 0.159722 18.0841C0.0545278 17.906 -0.000649391 17.7027 6.03471e-06 17.4958V6.5042C-0.000664205 6.29728 0.0545069 6.09401 0.159703 5.91583C0.264899 5.73764 0.416222 5.59114 0.59772 5.49176L10.4799 0.135028C10.643 0.0464173 10.8257 0 11.0113 0C11.1969 0 11.3796 0.0464173 11.5427 0.135028L21.4249 5.49176C21.6064 5.59114 21.7577 5.73764 21.8629 5.91583C21.9681 6.09401 22.0232 6.29728 22.0226 6.5042ZM18.4825 17.5776L15.9849 15.08L14.3448 16.3096C14.0062 16.5645 13.5913 16.6974 13.1676 16.6867C12.7439 16.6761 12.3362 16.5225 12.0108 16.251L8.90822 13.6667L4.95514 17.0233C4.85019 17.1125 4.76863 17.2259 4.71757 17.3538C4.66652 17.4816 4.64751 17.6201 4.66222 17.757C4.67692 17.8939 4.72489 18.0251 4.80194 18.1392C4.87899 18.2533 4.98278 18.3469 5.10427 18.4117L10.48 21.2786C10.6436 21.3658 10.826 21.4114 11.0113 21.4114C11.1966 21.4114 11.3791 21.3658 11.5426 21.2786L18.4825 17.5776ZM20.1775 7.69623C20.1775 7.49159 20.1219 7.2908 20.0166 7.11533C19.9113 6.93986 19.7603 6.79631 19.5797 6.70004L11.5425 2.41397C11.379 2.32678 11.1965 2.28118 11.0112 2.28118C10.8259 2.28118 10.6435 2.32678 10.48 2.41397L2.44281 6.70004C2.26223 6.79631 2.11122 6.93986 2.00592 7.11533C1.90063 7.2908 1.84501 7.49159 1.84502 7.69623V15.9962C1.85618 16.0559 1.87241 16.1145 1.89352 16.1714L3.3587 14.9041C3.45536 14.8075 3.58645 14.7532 3.72314 14.7532C3.85983 14.7532 3.99093 14.8075 4.08758 14.9041C4.13543 14.952 4.19224 14.99 4.25477 15.0159C4.31729 15.0418 4.3843 15.0551 4.45198 15.0551C4.51965 15.0551 4.58666 15.0418 4.64919 15.0159C4.71171 14.99 4.76852 14.952 4.81637 14.9041L8.49211 11.2285C8.58304 11.1376 8.70467 11.084 8.83313 11.0781C8.96158 11.0723 9.08757 11.1147 9.18637 11.197L12.8846 14.2788C12.9738 14.3531 13.0853 14.3951 13.2013 14.3981C13.3173 14.401 13.4309 14.3647 13.5237 14.2951L15.7554 12.6214C15.8546 12.547 15.9774 12.5109 16.1011 12.5197C16.2249 12.5285 16.3413 12.5816 16.429 12.6693L19.4152 15.6555C19.4778 15.7181 19.5575 15.7608 19.6442 15.7782C19.731 15.7956 19.821 15.7869 19.9029 15.7533C19.9848 15.7197 20.0549 15.6626 20.1044 15.5892C20.1539 15.5158 20.1806 15.4295 20.1811 15.3409C20.1869 14.3875 20.1775 12.3202 20.1775 7.69623Z" fill="#ffd46b"/>
</svg>
